<?xml version="1.0" encoding="iso-8859-1"?>
<!-- Generator: Adobe Illustrator 19.0.0, SVG Export Plug-In . SVG Version: 6.00 Build 0)  -->
<svg xmlns="http://www.w3.org/2000/svg" xmlns:xlink="http://www.w3.org/1999/xlink" version="1.1" id="Capa_1" x="0px" y="0px" viewBox="0 0 512 512" style="enable-background:new 0 0 512 512;" xml:space="preserve" width="50px" height="50px">
<g>
	<g>
		<path d="M362,16H92v15c0,40.174,14.18,76.459,37.761,105H0v15c0,91.552,76.183,165,167,165h56.36c26.82,0,48.64,21.82,48.64,48.64    c0,8.948-2.401,17.527-6.896,25.002C253.207,363.908,227.163,346,197,346h-45v15c0,24.508,11.818,46.305,30.052,60    C163.818,434.695,152,456.492,152,481v15h45c36.219,0,66.522-25.808,73.491-60H272c76.626,0,140.008-57.758,148.919-132.023    C475.781,280.547,512,226.287,512,166C512,83.29,444.71,16,362,16z M197,466h-12.43c6.191-17.461,22.874-30.1,42.43-30.1h12.43    C233.239,453.361,216.556,466,197,466z M227,406c-19.556,0-36.239-12.539-42.43-30H197c19.556,0,36.239,12.539,42.43,30H227z     M122.813,46H242c33.084,0,60,26.916,60,60c0,11.158-3.137,22.076-8.934,31.486C286.18,136.514,279.15,136,272,136h-99.848    C144.135,113.38,126.672,81.361,122.813,46z M157.9,285.699C91.647,281.396,38.107,230.477,30.84,166H152    c33.084,0,60,26.916,60,60C212,256.694,188.309,282.729,157.9,285.699z M223.36,286h-4.308C233.85,269.475,242,248.237,242,226    c0-23.031-8.7-44.065-22.98-60H272c15.377,0,30.086,2.911,43.61,8.205C326.344,189.4,332,207.222,332,226    c0,36.152-21.252,68.17-53.75,82.4C264.068,294.555,244.699,286,223.36,286z M291.208,404.464    c5.792-9.828,9.353-20.814,10.435-32.325C311.465,374.703,321.612,376,332,376c7.255,0,14.398-0.655,21.386-1.903    C336.439,389.764,314.984,400.622,291.208,404.464z M383.789,329.614C368.596,340.345,350.776,346,332,346    c-11.917,0-23.4-2.27-34.226-6.737c-0.676-1.976-1.419-3.92-2.244-5.822c16.839-8.37,31.458-20.59,42.882-35.982    C353.844,276.668,362,251.958,362,226c0-7.255-0.655-14.398-1.903-21.387C379.886,226.018,392,254.619,392,286    C392,301.379,389.085,316.089,383.789,329.614z M380.066,182.083c-15.759-16.382-35.194-29.202-56.966-37.115    c5.799-12.083,8.9-25.407,8.9-38.968c0-23.031-8.7-44.065-22.98-60H362c15.377,0,30.086,2.911,43.61,8.205    C416.344,69.4,422,87.222,422,106C422,136.936,405.841,165.725,380.066,182.083z M421.191,270.397    c-0.507-4.886-1.248-9.703-2.215-14.44c1.008,0.025,2.016,0.043,3.024,0.043c7.284,0,14.456-0.661,21.471-1.919    C436.752,260.31,429.291,265.799,421.191,270.397z M422,226c-4.342,0-8.672-0.312-12.943-0.925    c-2.994-6.708-6.465-13.158-10.372-19.306c13.578-9.083,25.22-20.867,34.174-34.728C445.381,151.659,452,129.168,452,106    c0-7.255-0.655-14.398-1.903-21.387C469.886,106.019,482,134.619,482,166c0,15.24-2.912,29.991-8.253,43.643    C458.563,220.355,440.758,226,422,226z" fill="#FFFFFF"/>
	</g>
</g>
<g>
	<g>
		<rect x="92" y="196" width="30" height="30" fill="#FFFFFF"/>
	</g>
</g>
<g>
	<g>
		<rect x="182" y="76" width="30" height="30" fill="#FFFFFF"/>
	</g>
</g>
<g>
</g>
<g>
</g>
<g>
</g>
<g>
</g>
<g>
</g>
<g>
</g>
<g>
</g>
<g>
</g>
<g>
</g>
<g>
</g>
<g>
</g>
<g>
</g>
<g>
</g>
<g>
</g>
<g>
</g>
</svg>
